# xmcd
#
# Track frame offsets: 
#        150
#        15668
#        31555
#
# Disc length: 626 seconds
#
# Revision: 1
# Processed by: cddbd v1.5.2PL0 Copyright (c) Steve Scherf et al.
# Submitted via: ExactAudioCopy v0.99pb4
#
DISCID=12027003
DTITLE=Mike Manzel - It's Christmas
DYEAR=1999
DGENRE=R&B
TTITLE0=It's Christmas (Version 1)
TTITLE1=It's Christmas (Version 2)
TTITLE2=It's Christmas (Instrumental)
EXTD=
EXTT0=
EXTT1=
EXTT2=
PLAYORDER=
